<svg width="333" height="284" viewBox="0 0 333 284" fill="none" xmlns="http://www.w3.org/2000/svg">
<circle cx="158.5" cy="104" r="54" fill="#9A7AD3"/>
<circle cx="181.5" cy="104" r="54" fill="#94A9E4"/>
<circle cx="204" cy="76.5" r="38.5" fill="#E73569"/>
<circle cx="163" cy="54.5" r="38.5" fill="#FFC83A"/>
<circle cx="211" cy="23.5" r="6.5" fill="#CF82DA"/>
<circle cx="200" cy="170.5" r="6.5" fill="#E7B68B"/>
<circle cx="159" cy="170.5" r="3.5" fill="#7967D6"/>
<circle cx="101" cy="54.5" r="10.5" fill="#D44380"/>
<circle cx="169.5" cy="96" r="54" fill="white"/>
<path d="M202.075 98.7645C201.582 93.2396 200.772 92.1637 200.465 91.759C199.761 90.8238 198.635 90.2127 197.443 89.5715C197.375 89.5358 197.317 89.485 197.273 89.423C197.228 89.361 197.199 89.2895 197.187 89.2142C197.175 89.1389 197.18 89.0619 197.203 88.9891C197.226 88.9163 197.265 88.8498 197.318 88.7949C197.539 88.571 197.709 88.302 197.816 88.0062C197.922 87.7105 197.964 87.3952 197.938 87.0818C197.886 86.5262 197.628 86.0102 197.214 85.6362C196.8 85.2621 196.26 85.0574 195.702 85.0625H193.569C193.478 85.063 193.387 85.069 193.296 85.0803C193.234 85.0533 193.169 85.0318 193.103 85.016C191.84 82.3459 190.11 78.69 186.526 76.9059C181.209 74.2617 171.414 74.125 169.5 74.125C167.586 74.125 157.791 74.2617 152.481 76.9018C148.897 78.6859 147.167 82.3418 145.904 85.0119L145.893 85.0338C145.83 85.0427 145.768 85.0582 145.708 85.0803C145.618 85.069 145.526 85.063 145.435 85.0625H143.298C142.74 85.0574 142.2 85.2621 141.786 85.6362C141.372 86.0102 141.114 86.5262 141.063 87.0818C141.038 87.3944 141.082 87.7086 141.19 88.0028C141.298 88.2971 141.469 88.5645 141.69 88.7867C141.743 88.8416 141.782 88.9081 141.805 88.9809C141.828 89.0537 141.834 89.1307 141.822 89.206C141.81 89.2813 141.78 89.3528 141.736 89.4148C141.691 89.4768 141.633 89.5276 141.566 89.5633C140.373 90.2086 139.241 90.8197 138.543 91.7508C138.237 92.1609 137.427 93.2314 136.934 98.7563C136.66 101.865 136.619 105.084 136.834 107.156C137.284 111.463 138.127 114.066 138.163 114.174C138.292 114.567 138.53 114.915 138.85 115.178C139.169 115.441 139.557 115.609 139.967 115.66V115.688C139.967 116.268 140.198 116.824 140.608 117.234C141.018 117.645 141.575 117.875 142.155 117.875H149.811C150.391 117.875 150.948 117.645 151.358 117.234C151.768 116.824 151.999 116.268 151.999 115.688C153.176 115.688 153.995 115.477 154.863 115.253C156.116 114.915 157.398 114.69 158.691 114.581C162.862 114.184 167.01 114.047 169.5 114.047C171.939 114.047 176.27 114.184 180.448 114.581C181.747 114.691 183.033 114.916 184.292 115.255C185.123 115.469 185.912 115.666 187.004 115.686C187.004 116.266 187.235 116.823 187.645 117.233C188.055 117.643 188.611 117.874 189.192 117.874H196.848C197.428 117.874 197.984 117.643 198.395 117.233C198.805 116.823 199.035 116.266 199.035 115.686V115.67C199.447 115.619 199.836 115.452 200.156 115.189C200.477 114.926 200.716 114.577 200.846 114.184C200.881 114.076 201.725 111.472 202.174 107.166C202.389 105.092 202.351 101.879 202.075 98.7645ZM149.858 86.8822C150.951 84.558 152.202 81.9275 154.43 80.8188C157.648 79.2164 164.318 78.4945 169.5 78.4945C174.682 78.4945 181.352 79.2109 184.571 80.8188C186.798 81.9275 188.043 84.5594 189.142 86.8822L189.279 87.1789C189.359 87.3478 189.394 87.5344 189.382 87.7208C189.369 87.9072 189.309 88.0873 189.207 88.2439C189.105 88.4005 188.965 88.5283 188.799 88.6152C188.634 88.7021 188.449 88.7451 188.262 88.7402C183.719 88.6172 174.148 88.2234 169.5 88.2234C164.852 88.2234 155.281 88.6268 150.731 88.7498C150.544 88.7547 150.36 88.7116 150.194 88.6247C150.029 88.5379 149.888 88.41 149.786 88.2535C149.684 88.0969 149.624 87.9168 149.611 87.7304C149.599 87.5439 149.634 87.3574 149.714 87.1885C149.762 87.0873 149.813 86.9848 149.858 86.8822ZM151.489 97.7691C149.137 98.0522 146.77 98.1919 144.401 98.1875C142.952 98.1875 141.458 97.7773 141.18 96.4867C140.99 95.6186 141.011 95.1305 141.113 94.6396C141.199 94.2227 141.336 93.9191 142.02 93.8125C143.797 93.5391 144.791 93.8822 147.7 94.7395C149.629 95.3068 151.021 96.0629 151.814 96.6617C152.212 96.957 152 97.7281 151.489 97.7691ZM181.756 108.98C179.956 109.185 176.358 109.11 169.541 109.11C162.724 109.11 159.127 109.185 157.328 108.98C155.471 108.774 153.105 107.018 154.721 105.454C155.797 104.423 158.307 103.652 161.65 103.219C164.992 102.785 166.407 102.562 169.527 102.562C172.647 102.562 173.919 102.699 177.405 103.22C180.891 103.741 183.526 104.522 184.334 105.455C185.808 107.129 183.611 108.763 181.756 108.988V108.98ZM197.82 96.4853C197.547 97.7814 196.043 98.1861 194.599 98.1861C192.185 98.1867 189.773 98.047 187.375 97.7678C186.956 97.7281 186.762 96.9939 187.186 96.6603C187.967 96.0465 189.373 95.3055 191.3 94.7381C194.209 93.8809 195.887 93.5377 197.328 93.8234C197.679 93.8932 197.865 94.2705 197.887 94.507C197.983 95.1656 197.961 95.8362 197.82 96.4867V96.4853Z" fill="#3F4CAE"/>
<path d="M19.04 241.552V202.944C19.04 198.992 23.068 195.496 26.716 195.496H33.86C52.328 195.496 61.6 209.176 61.6 222.628C61.6 235.928 52.632 249 35.076 249H26.716C22.08 249 19.04 246.188 19.04 241.552ZM33.784 234.18H35.152C42.904 234.18 47.008 228.024 47.008 221.868C47.008 216.244 43.284 210.544 35.076 210.544H33.784V234.18ZM85.9841 217.384L82.1081 227.036H89.2521L85.9841 217.384ZM95.4081 244.516L93.2801 238.664H77.4721L75.1161 244.516C73.6721 247.784 71.1641 249.304 68.6561 249.304C64.7041 249.304 60.6761 246.568 60.6761 242.312C60.6761 241.02 60.8281 240.032 61.2081 239.348L79.2961 199.676C80.5121 197.016 82.1081 195.268 86.1361 195.268C90.0121 195.268 91.6841 197.016 92.8241 199.752L109.316 239.348C109.696 240.108 109.848 241.096 109.848 242.312C109.848 246.34 105.896 249.304 101.944 249.304C98.6761 249.304 96.5481 247.708 95.4081 244.516ZM124.207 210.544L130.819 199.068C132.339 196.408 134.771 195.268 137.127 195.268C141.003 195.268 144.727 198.46 144.727 202.488C144.727 203.78 144.347 205.148 143.511 206.516L131.655 225.82V241.932C131.655 246.796 128.235 249.304 124.283 249.304C120.255 249.304 116.911 246.796 116.911 241.932V225.82L104.903 206.44C104.067 205.148 103.687 203.932 103.687 202.716C103.687 198.612 107.411 195.268 111.363 195.268C113.491 195.268 116.075 196.332 117.595 198.992L124.207 210.544ZM143.154 222.248C143.154 207.124 155.314 194.964 170.438 194.964C185.562 194.964 197.798 207.124 197.798 222.248C197.798 237.372 185.562 249.532 170.438 249.532C155.314 249.532 143.154 237.372 143.154 222.248ZM158.126 222.476C158.126 229.392 163.674 234.788 170.514 234.788C177.354 234.788 182.978 229.392 182.978 222.476C182.978 215.56 177.354 210.012 170.514 210.012C163.674 210.012 158.126 215.56 158.126 222.476ZM247.067 226.504L253.603 200.36C254.515 196.788 256.947 195.268 259.987 195.268C263.635 195.268 267.207 197.928 267.207 202.488C267.207 203.324 267.131 204.236 266.827 205.148L254.515 244.136C253.299 247.708 250.107 249.304 247.447 249.304C244.179 249.304 241.443 247.48 240.227 244.136L233.159 224.528L226.395 244.136C225.179 247.708 221.987 249.304 219.327 249.304C216.059 249.304 213.095 247.48 212.107 244.136L199.035 204.844C198.731 204.008 198.427 203.4 198.427 202.564C198.427 198.004 201.923 195.268 205.799 195.268C208.763 195.268 211.423 196.712 212.411 200.284L219.707 226.504L226.623 200.664C227.535 197.092 229.967 195.268 233.463 195.268C236.275 195.268 239.391 197.092 240.303 200.664L247.067 226.504ZM299.159 219.588V202.26C299.159 197.7 302.351 195.268 306.303 195.268C310.027 195.268 313.295 197.7 313.295 202.26V241.932C313.295 246.568 309.875 249.304 306.303 249.304C303.871 249.304 301.439 248.164 299.691 245.504L285.859 224.908V242.312C285.859 246.872 282.667 249.304 278.715 249.304C274.991 249.304 271.799 246.872 271.799 242.312V202.564C271.799 198.004 275.143 195.268 278.715 195.268C281.223 195.268 283.655 196.332 285.403 198.992L299.159 219.588Z" fill="#4348BD"/>
</svg>
