<svg width="219" height="84" viewBox="0 0 219 84" fill="none" xmlns="http://www.w3.org/2000/svg">
<path d="M37.4676 68.7669C50.374 68.7669 60.8367 58.2445 60.8367 45.2643C60.8367 32.2842 50.374 21.7617 37.4676 21.7617C24.5613 21.7617 14.0986 32.2842 14.0986 45.2643C14.0986 58.2445 24.5613 68.7669 37.4676 68.7669Z" fill="#9A7AD3"/>
<path d="M47.4208 68.7669C60.3271 68.7669 70.7898 58.2445 70.7898 45.2643C70.7898 32.2842 60.3271 21.7617 47.4208 21.7617C34.5144 21.7617 24.0518 32.2842 24.0518 45.2643C24.0518 58.2445 34.5144 68.7669 47.4208 68.7669Z" fill="#94A9E4"/>
<path d="M57.1583 50.0518C66.36 50.0518 73.8195 42.5496 73.8195 33.2953C73.8195 24.041 66.36 16.5388 57.1583 16.5388C47.9566 16.5388 40.4971 24.041 40.4971 33.2953C40.4971 42.5496 47.9566 50.0518 57.1583 50.0518Z" fill="#E73569"/>
<path d="M39.4151 40.4766C48.6169 40.4766 56.0764 32.9745 56.0764 23.7201C56.0764 14.4658 48.6169 6.96362 39.4151 6.96362C30.2134 6.96362 22.7539 14.4658 22.7539 23.7201C22.7539 32.9745 30.2134 40.4766 39.4151 40.4766Z" fill="#FFC83A"/>
<path d="M60.1879 13.057C61.7415 13.057 63.0009 11.7904 63.0009 10.2279C63.0009 8.66552 61.7415 7.39893 60.1879 7.39893C58.6344 7.39893 57.375 8.66552 57.375 10.2279C57.375 11.7904 58.6344 13.057 60.1879 13.057Z" fill="#CF82DA"/>
<path d="M55.4272 77.036C56.9807 77.036 58.2401 75.7694 58.2401 74.2069C58.2401 72.6445 56.9807 71.3779 55.4272 71.3779C53.8737 71.3779 52.6143 72.6445 52.6143 74.2069C52.6143 75.7694 53.8737 77.036 55.4272 77.036Z" fill="#E7B68B"/>
<path d="M37.6846 75.7305C38.5211 75.7305 39.1992 75.0485 39.1992 74.2072C39.1992 73.3658 38.5211 72.6838 37.6846 72.6838C36.8481 72.6838 36.1699 73.3658 36.1699 74.2072C36.1699 75.0485 36.8481 75.7305 37.6846 75.7305Z" fill="#7967D6"/>
<path d="M12.584 28.29C15.0936 28.29 17.128 26.244 17.128 23.7201C17.128 21.1962 15.0936 19.1501 12.584 19.1501C10.0744 19.1501 8.04004 21.1962 8.04004 23.7201C8.04004 26.244 10.0744 28.29 12.584 28.29Z" fill="#D44380"/>
<path d="M42.2284 65.285C55.1347 65.285 65.5974 54.7625 65.5974 41.7824C65.5974 28.8023 55.1347 18.2798 42.2284 18.2798C29.322 18.2798 18.8594 28.8023 18.8594 41.7824C18.8594 54.7625 29.322 65.285 42.2284 65.285Z" fill="white"/>
<path d="M56.3251 42.9856C56.1121 40.581 55.7612 40.1127 55.6287 39.9366C55.324 39.5296 54.8365 39.2636 54.3205 38.9845C54.2913 38.969 54.2661 38.9469 54.2469 38.9199C54.2277 38.8929 54.215 38.8618 54.2098 38.829C54.2045 38.7963 54.207 38.7627 54.2168 38.731C54.2267 38.6994 54.2438 38.6705 54.2667 38.6465C54.3622 38.5491 54.4356 38.4319 54.4819 38.3032C54.5282 38.1745 54.5462 38.0373 54.5347 37.901C54.5124 37.6591 54.4006 37.4345 54.2214 37.2718C54.0423 37.1089 53.8088 37.0198 53.5673 37.0221H52.6443C52.6048 37.0223 52.5653 37.0248 52.526 37.0298C52.4991 37.018 52.4711 37.0086 52.4426 37.0018C51.8959 35.8397 51.1474 34.2485 49.5961 33.472C47.2951 32.3212 43.0564 32.2617 42.2281 32.2617C41.3998 32.2617 37.1611 32.3212 34.8631 33.4702C33.3117 34.2468 32.5633 35.8379 32.0166 37L32.0119 37.0096C31.9846 37.0134 31.9578 37.0202 31.932 37.0298C31.8927 37.0248 31.8532 37.0223 31.8137 37.0221H30.8889C30.6474 37.0198 30.414 37.1089 30.2347 37.2718C30.0556 37.4345 29.9438 37.6591 29.9215 37.901C29.911 38.037 29.9299 38.1737 29.9767 38.3018C30.0236 38.4298 30.0974 38.5462 30.1931 38.6429C30.216 38.6669 30.233 38.6958 30.2429 38.7275C30.2528 38.7592 30.2552 38.7927 30.25 38.8254C30.2448 38.8582 30.2321 38.8893 30.2128 38.9163C30.1936 38.9433 30.1685 38.9654 30.1393 38.9809C29.6233 39.2618 29.1334 39.5278 28.8311 39.933C28.6985 40.1116 28.3483 40.5775 28.1347 42.982C28.0163 44.3352 27.9986 45.7359 28.0915 46.638C28.2862 48.5123 28.6512 49.6454 28.6666 49.6924C28.7226 49.8634 28.8257 50.015 28.964 50.1295C29.1022 50.244 29.2699 50.3167 29.4476 50.3392V50.3511C29.4476 50.6035 29.5474 50.8458 29.7249 51.0243C29.9024 51.2029 30.1432 51.3031 30.3942 51.3031H33.7076C33.9587 51.3031 34.1994 51.2029 34.3769 51.0243C34.5545 50.8458 34.6542 50.6035 34.6542 50.3511C35.1636 50.3511 35.518 50.2594 35.8938 50.1619C36.4362 50.0148 36.9906 49.9171 37.5504 49.8696C39.3556 49.6965 41.1507 49.637 42.2281 49.637C43.2837 49.637 45.1581 49.6965 46.9662 49.8696C47.5281 49.9172 48.0848 50.0153 48.6293 50.163C48.989 50.2558 49.3304 50.3416 49.8032 50.3505C49.8032 50.603 49.9029 50.8452 50.0804 51.0237C50.258 51.2023 50.4988 51.3025 50.7499 51.3025H54.0631C54.3142 51.3025 54.555 51.2023 54.7326 51.0237C54.9101 50.8452 55.0098 50.603 55.0098 50.3505V50.3433C55.1879 50.3213 55.3561 50.2488 55.4948 50.1342C55.6335 50.0197 55.737 49.8679 55.7932 49.6965C55.8086 49.6495 56.1736 48.5165 56.3683 46.6421C56.4611 45.7395 56.4446 44.3411 56.3251 42.9856ZM33.7277 37.8141C34.201 36.8025 34.7424 35.6576 35.7062 35.175C37.099 34.4777 39.9857 34.1634 42.2281 34.1634C44.4705 34.1634 47.3573 34.4753 48.75 35.175C49.7138 35.6576 50.2529 36.8031 50.7285 37.8141L50.7877 37.9432C50.8223 38.0167 50.8376 38.0979 50.8321 38.179C50.8267 38.2602 50.8006 38.3386 50.7565 38.4067C50.7123 38.4749 50.6515 38.5305 50.58 38.5683C50.5084 38.6061 50.4283 38.6248 50.3475 38.6227C48.3814 38.5692 44.2398 38.3978 42.2281 38.3978C40.2165 38.3978 36.0748 38.5734 34.1058 38.6269C34.0249 38.629 33.9449 38.6103 33.8733 38.5724C33.8017 38.5347 33.7409 38.479 33.6968 38.4109C33.6527 38.3427 33.6266 38.2643 33.6212 38.1832C33.6156 38.102 33.631 38.0209 33.6656 37.9473C33.6863 37.9033 33.7082 37.8587 33.7277 37.8141ZM34.4336 42.5524C33.4158 42.6756 32.3915 42.7364 31.3664 42.7345C30.7392 42.7345 30.0925 42.556 29.9724 41.9943C29.8901 41.6164 29.899 41.404 29.9434 41.1903C29.9807 41.0088 30.0398 40.8767 30.3357 40.8303C31.1048 40.7113 31.535 40.8607 32.794 41.2338C33.6289 41.4808 34.2312 41.8098 34.5744 42.0704C34.7465 42.1989 34.6548 42.5345 34.4336 42.5524ZM47.5318 47.4318C46.7531 47.521 45.1959 47.4883 42.2459 47.4883C39.2958 47.4883 37.7391 47.521 36.9605 47.4318C36.157 47.3419 35.1329 46.5779 35.8322 45.8972C36.2979 45.4485 37.3841 45.1129 38.8308 44.9242C40.2774 44.7357 40.8898 44.6386 42.24 44.6386C43.5901 44.6386 44.1404 44.6981 45.6491 44.9248C47.1579 45.1515 48.298 45.4913 48.6476 45.8978C49.2854 46.626 48.3347 47.3371 47.5318 47.4354V47.4318ZM54.4838 41.9937C54.3655 42.5577 53.7146 42.7339 53.0899 42.7339C52.0451 42.7341 51.0012 42.6734 49.9635 42.5518C49.7824 42.5345 49.6985 42.215 49.8819 42.0698C50.2197 41.8027 50.8285 41.4802 51.6622 41.2332C52.9212 40.8601 53.6472 40.7107 54.2708 40.8351C54.4229 40.8654 54.5034 41.0297 54.5128 41.1326C54.5545 41.4192 54.5447 41.7105 54.4838 41.9937Z" fill="#3F4CAE"/>
<path d="M82.0596 50.6639V33.8604C82.0596 32.1404 83.803 30.6188 85.3814 30.6188H88.473C96.4656 30.6188 100.478 36.5728 100.478 42.4275C100.478 48.2161 96.5971 53.9055 88.9992 53.9055H85.3814C83.3749 53.9055 82.0596 52.6816 82.0596 50.6639ZM88.4402 47.4553H89.0321C92.3868 47.4553 94.1631 44.776 94.1631 42.0967C94.1631 39.649 92.5512 37.1682 88.9992 37.1682H88.4402V47.4553ZM111.03 40.1452L109.353 44.346H112.445L111.03 40.1452ZM115.109 51.9539L114.187 49.4069H107.347L106.327 51.9539C105.702 53.3762 104.617 54.0378 103.531 54.0378C101.821 54.0378 100.078 52.847 100.078 50.9947C100.078 50.4323 100.144 50.0023 100.308 49.7046L108.136 32.4381C108.662 31.2803 109.353 30.5196 111.096 30.5196C112.773 30.5196 113.497 31.2803 113.99 32.4711L121.128 49.7046C121.292 50.0354 121.358 50.4654 121.358 50.9947C121.358 52.7477 119.647 54.0378 117.937 54.0378C116.523 54.0378 115.602 53.3431 115.109 51.9539ZM127.571 37.1682L130.433 32.1734C131.091 31.0157 132.143 30.5196 133.163 30.5196C134.841 30.5196 136.452 31.9088 136.452 33.6619C136.452 34.2242 136.287 34.8196 135.926 35.415L130.795 43.8168V50.8292C130.795 52.9462 129.315 54.0378 127.604 54.0378C125.862 54.0378 124.414 52.9462 124.414 50.8292V43.8168L119.218 35.382C118.856 34.8196 118.692 34.2904 118.692 33.7612C118.692 31.9749 120.303 30.5196 122.014 30.5196C122.934 30.5196 124.052 30.9826 124.711 32.1404L127.571 37.1682ZM135.771 42.2622C135.771 35.6797 141.034 30.3872 147.579 30.3872C154.124 30.3872 159.419 35.6797 159.419 42.2622C159.419 48.8446 154.124 54.137 147.579 54.137C141.034 54.137 135.771 48.8446 135.771 42.2622ZM142.25 42.3614C142.25 45.3714 144.651 47.72 147.612 47.72C150.572 47.72 153.005 45.3714 153.005 42.3614C153.005 39.3513 150.572 36.9366 147.612 36.9366C144.651 36.9366 142.25 39.3513 142.25 42.3614ZM180.74 44.1145L183.569 32.7358C183.964 31.1811 185.016 30.5196 186.332 30.5196C187.91 30.5196 189.456 31.6772 189.456 33.6619C189.456 34.0258 189.423 34.4227 189.292 34.8196L183.964 51.7885C183.438 53.3432 182.056 54.0378 180.905 54.0378C179.491 54.0378 178.306 53.2439 177.78 51.7885L174.722 43.2545L171.794 51.7885C171.268 53.3432 169.887 54.0378 168.736 54.0378C167.322 54.0378 166.039 53.2439 165.611 51.7885L159.955 34.6873C159.823 34.3235 159.691 34.0589 159.691 33.695C159.691 31.7103 161.204 30.5196 162.882 30.5196C164.164 30.5196 165.315 31.148 165.743 32.7027L168.9 44.1145L171.893 32.8681C172.288 31.3134 173.34 30.5196 174.853 30.5196C176.07 30.5196 177.419 31.3134 177.813 32.8681L180.74 44.1145ZM203.284 41.1044V33.5627C203.284 31.578 204.665 30.5196 206.375 30.5196C207.987 30.5196 209.401 31.578 209.401 33.5627V50.8292C209.401 52.847 207.921 54.0378 206.375 54.0378C205.323 54.0378 204.271 53.5416 203.514 52.3839L197.528 43.4198V50.9947C197.528 52.9793 196.147 54.0378 194.437 54.0378C192.825 54.0378 191.444 52.9793 191.444 50.9947V33.695C191.444 31.7103 192.891 30.5196 194.437 30.5196C195.522 30.5196 196.574 30.9826 197.331 32.1404L203.284 41.1044Z" fill="#4348BD"/>
</svg>
