<svg width="56" height="57" viewBox="0 0 56 57" fill="none" xmlns="http://www.w3.org/2000/svg">
<path d="M18.667 28.6214C23.322 28.6214 26.8337 25.1098 26.8337 20.4548C26.8337 15.7998 23.322 12.2881 18.667 12.2881C14.012 12.2881 10.5003 15.7998 10.5003 20.4548C10.5003 25.1098 14.012 28.6214 18.667 28.6214ZM21.0003 30.8334H16.3337C9.90066 30.8334 4.66699 36.0671 4.66699 42.5001V44.8334H32.667V42.5001C32.667 36.0671 27.4333 30.8334 21.0003 30.8334ZM47.353 19.8481L37.3197 29.8628L34.305 26.8481L31.0057 30.1474L37.3197 36.4568L50.6477 23.1521L47.353 19.8481Z" fill="#0042FD"/>
</svg>
