<svg width="62" height="63" viewBox="0 0 62 63" fill="none" xmlns="http://www.w3.org/2000/svg">
<path d="M19.2355 43.2644L12.4594 39.5858L13.981 38.0642L19.9898 38.9684L30.7107 28.2475L11.7051 17.9659L13.6322 15.987L37.0114 21.9184L44.6142 14.2949C45.1136 13.7955 45.706 13.5458 46.3915 13.5458C47.0752 13.5458 47.6668 13.7955 48.1662 14.2949C48.6657 14.7944 48.9154 15.3954 48.9154 16.0981C48.9154 16.7973 48.6657 17.3975 48.1662 17.8987L40.6229 25.5376L46.5077 48.8677L44.5806 50.8439L34.2472 31.8384L23.6246 42.4584L24.4771 48.5189L22.909 50.0896L19.2355 43.2644Z" fill="#0042FD"/>
</svg>
