<svg width="56" height="57" viewBox="0 0 56 57" fill="none" xmlns="http://www.w3.org/2000/svg">
<path d="M40.8337 11.5833C40.8337 12.6663 40.4035 13.7049 39.6377 14.4707C38.8719 15.2365 37.8333 15.6667 36.7503 15.6667C35.6674 15.6667 34.6287 15.2365 33.863 14.4707C33.0972 13.7049 32.667 12.6663 32.667 11.5833C32.667 10.5004 33.0972 9.46175 33.863 8.69598C34.6287 7.93021 35.6674 7.5 36.7503 7.5C37.8333 7.5 38.8719 7.93021 39.6377 8.69598C40.4035 9.46175 40.8337 10.5004 40.8337 11.5833Z" fill="#0042FD"/>
<path fill-rule="evenodd" clip-rule="evenodd" d="M36.7497 13.3333C37.2138 13.3333 37.6589 13.149 37.9871 12.8208C38.3153 12.4926 38.4997 12.0475 38.4997 11.5833C38.4997 11.1192 38.3153 10.6741 37.9871 10.3459C37.6589 10.0177 37.2138 9.83333 36.7497 9.83333C36.2855 9.83333 35.8404 10.0177 35.5122 10.3459C35.1841 10.6741 34.9997 11.1192 34.9997 11.5833C34.9997 12.0475 35.1841 12.4926 35.5122 12.8208C35.8404 13.149 36.2855 13.3333 36.7497 13.3333ZM36.7497 15.6667C37.2859 15.6667 37.8169 15.561 38.3123 15.3558C38.8077 15.1506 39.2579 14.8499 39.637 14.4707C40.0162 14.0915 40.317 13.6414 40.5222 13.146C40.7274 12.6505 40.833 12.1196 40.833 11.5833C40.833 11.0471 40.7274 10.5161 40.5222 10.0207C40.317 9.5253 40.0162 9.07515 39.637 8.69598C39.2579 8.31681 38.8077 8.01603 38.3123 7.81083C37.8169 7.60562 37.2859 7.5 36.7497 7.5C35.6667 7.5 34.6281 7.93021 33.8623 8.69598C33.0965 9.46175 32.6663 10.5004 32.6663 11.5833C32.6663 12.6663 33.0965 13.7049 33.8623 14.4707C34.6281 15.2365 35.6667 15.6667 36.7497 15.6667ZM22.1663 19.1667C21.5475 19.1667 20.954 19.4125 20.5164 19.8501C20.0788 20.2877 19.833 20.8812 19.833 21.5C19.833 22.1188 20.0788 22.7123 20.5164 23.1499C20.954 23.5875 21.5475 23.8333 22.1663 23.8333H30.333V47.1667C30.333 47.7855 30.5788 48.379 31.0164 48.8166C31.454 49.2542 32.0475 49.5 32.6663 49.5C33.2852 49.5 33.8787 49.2542 34.3163 48.8166C34.7538 48.379 34.9997 47.7855 34.9997 47.1667V36.6667H38.4997V47.1667C38.4997 47.7855 38.7455 48.379 39.1831 48.8166C39.6207 49.2542 40.2142 49.5 40.833 49.5C41.4518 49.5 42.0453 49.2542 42.4829 48.8166C42.9205 48.379 43.1663 47.7855 43.1663 47.1667V33.0698C44.8931 32.7726 46.4457 31.8389 47.5176 30.4529C48.5895 29.0669 49.1029 27.3294 48.9564 25.5834C48.8099 23.8374 48.0141 22.2098 46.7262 21.0218C45.4383 19.8339 43.7518 19.1719 41.9997 19.1667H22.1663ZM45.4997 26.1667C45.4997 25.5478 45.2538 24.9543 44.8163 24.5168C44.3787 24.0792 43.7852 23.8333 43.1663 23.8333V28.5C43.7852 28.5 44.3787 28.2542 44.8163 27.8166C45.2538 27.379 45.4997 26.7855 45.4997 26.1667Z" fill="#0042FD"/>
<path fill-rule="evenodd" clip-rule="evenodd" d="M7 37.8334C7 37.2145 7.24583 36.621 7.68342 36.1835C8.121 35.7459 8.71449 35.5 9.33333 35.5H24.5C25.1188 35.5 25.7123 35.7459 26.1499 36.1835C26.5875 36.621 26.8333 37.2145 26.8333 37.8334V47.1667C26.8333 47.7855 26.5875 48.379 26.1499 48.8166C25.7123 49.2542 25.1188 49.5 24.5 49.5H9.33333C8.71449 49.5 8.121 49.2542 7.68342 48.8166C7.24583 48.379 7 47.7855 7 47.1667V37.8334ZM11.6667 46V39H14V46H11.6667ZM19.8333 39V46H22.1667V39H19.8333ZM12.8333 33.1667C12.8333 32.5479 13.0792 31.9544 13.5168 31.5168C13.9543 31.0792 14.5478 30.8334 15.1667 30.8334H18.6667C19.2855 30.8334 19.879 31.0792 20.3166 31.5168C20.7542 31.9544 21 32.5479 21 33.1667V35.5H18.6667V33.1667H15.1667V35.5H12.8333V33.1667Z" fill="#0042FD"/>
</svg>
